<svg xmlns="http://www.w3.org/2000/svg" xmlns:xlink="http://www.w3.org/1999/xlink"><defs><clipPath id="clip0_191_43"><path d="M0 0h22v40H0z"/></clipPath><clipPath id="clip0_253_1786"><path d="M0 0h24v24H0z"/></clipPath></defs><symbol id="app-store" viewBox="0 0 24 24"><path d="M16.498 0c-1.28.088-2.775.907-3.647 1.974-.795.967-1.449 2.404-1.194 3.801 1.399.043 2.843-.795 3.68-1.88.783-1.009 1.375-2.437 1.161-3.895z"/><path d="M21.555 8.052c-1.228-1.54-2.955-2.435-4.585-2.435-2.153 0-3.063 1.03-4.559 1.03-1.542 0-2.713-1.027-4.575-1.027-1.828 0-3.775 1.118-5.01 3.029-1.735 2.69-1.438 7.75 1.374 12.06 1.007 1.542 2.35 3.276 4.109 3.29 1.564.016 2.005-1.003 4.125-1.013 2.12-.012 2.521 1.027 4.083 1.01 1.76-.013 3.177-1.934 4.183-3.476.722-1.106.99-1.662 1.55-2.91-4.07-1.55-4.722-7.337-.695-9.558z"/></symbol><symbol id="arrow-right" viewBox="0 0 29 20"><path d="M28.559 8.858l-.002-.001L20.694.47a1.435 1.435 0 00-2.129.005 1.696 1.696 0 00.005 2.281l5.28 5.631H1.505C.674 8.387 0 9.11 0 10c0 .89.674 1.613 1.505 1.613H23.85l-5.28 5.63a1.696 1.696 0 00-.005 2.282c.587.631 1.54.634 2.129.005l7.863-8.387.002-.001c.59-.63.587-1.655 0-2.284z"/></symbol><symbol id="arrow-select" viewBox="0 0 16 8"><path d="M16 0H0l8 8 8-8z"/></symbol><symbol id="bath" viewBox="0 0 16 16"><path d="M15 7.97H1a1.001 1.001 0 000 2h14a1.001 1.001 0 000-2z"/><path d="M15.092 9.316a.331.331 0 00-.412.23l-.026.091H1.346l-.026-.091a.333.333 0 10-.641.182l.919 3.216a2.343 2.343 0 002.243 1.693h8.317a2.343 2.343 0 002.243-1.693l.919-3.216a.333.333 0 00-.228-.412zm-11.25 3.988c-.444 0-.84-.298-.962-.726l-.432-1.516a.333.333 0 11.64-.182l.433 1.516a.336.336 0 00.32.242.334.334 0 010 .666z"/><path d="M4.481 14.005a.335.335 0 00-.447.15l-.667 1.333a.334.334 0 00.597.298l.666-1.334a.334.334 0 00-.149-.447zM12.632 15.488l-.666-1.333a.333.333 0 10-.597.298l.667 1.333a.333.333 0 00.596-.298zM13.39.03c-.34 0-.66.132-.9.373L11.43 1.46a.334.334 0 00.472.471L12.96.875a.607.607 0 011.04.429v7a.334.334 0 10.667-.001v-7C14.668.6 14.097.03 13.39.03z"/><path d="M12.235 1.794l-.667-.666a.33.33 0 00-.29-.094l-1.666.274a.334.334 0 00-.186.56l2 2.06a.332.332 0 00.334.088.332.332 0 00.232-.254l.334-1.667a.333.333 0 00-.091-.3zM7.902 4.068a.334.334 0 00-.472 0l-.666.667a.334.334 0 00.47.471l.668-.666a.334.334 0 000-.472zM9.236 5.402a.334.334 0 00-.472 0l-.666.666a.334.334 0 00.47.472l.668-.667a.334.334 0 000-.471zM9.902 3.402a.334.334 0 00-.472 0l-.666.666a.334.334 0 00.47.472l.668-.667a.334.334 0 000-.471z"/></symbol><symbol id="bed" viewBox="0 0 16 16"><path d="M1.328 8.952h13.344a.996.996 0 100-1.992H1.328a.996.996 0 100 1.992zM8.996 4.812a.528.528 0 00-.527.527v.683h4.08V5.34a.528.528 0 00-.528-.527H8.996z"/><path d="M2.514 5.34c0-.808.657-1.465 1.464-1.465h3.025c.385 0 .735.149.996.392.262-.243.612-.392.996-.392h3.025c.808 0 1.465.657 1.465 1.464v.683h1.521V2.794a.996.996 0 00-.995-.996H1.988a.996.996 0 00-.996.996v3.228h1.522V5.34z"/><path d="M3.978 4.812a.528.528 0 00-.527.527v.683h4.08V5.34a.528.528 0 00-.528-.527H3.978zM0 9.89v4.312h.938v-1.71h14.124v1.71H16V9.89H0z"/></symbol><symbol id="g-play" viewBox="0 0 22 24"><path d="M20.752 10.29L3.205.258A1.966 1.966 0 002.229 0h-.02a1.981 1.981 0 00-.302.028l-.038.005v.001A1.964 1.964 0 00.258 1.97v20.06a1.97 1.97 0 001.611 1.936v.001l.034.005a1.806 1.806 0 00.303.027L2.23 24c.336 0 .673-.086.976-.259l17.547-10.03a1.97 1.97 0 00.992-1.71V12a1.97 1.97 0 00-.992-1.71zm-6.94-1.993l-1.744 2.29-4.439-5.824 6.184 3.534zm6.089 3.925L7.629 19.239l7.684-10.081 4.588 2.622a.256.256 0 010 .444z"/></symbol><symbol id="heart" viewBox="0 0 20 18"><path stroke-linecap="round" stroke-linejoin="round" stroke-width="2" d="M17.367 2.842a4.583 4.583 0 00-6.483 0L10 3.725l-.883-.883a4.584 4.584 0 10-6.483 6.483l.883.883L10 16.692l6.484-6.484.883-.883a4.584 4.584 0 000-6.483v0z"/></symbol><symbol id="inst" viewBox="0 0 16 17"><path d="M8 4.207A4.044 4.044 0 003.957 8.25 4.021 4.021 0 008 12.293a4.044 4.044 0 004.043-4.043c0-2.215-1.828-4.043-4.043-4.043zm0 6.68A2.633 2.633 0 015.363 8.25c0-1.441 1.16-2.602 2.637-2.602a2.596 2.596 0 012.602 2.602c0 1.477-1.16 2.637-2.602 2.637zm5.133-6.82a.945.945 0 00-.95-.95.945.945 0 00-.949.95c0 .527.422.949.95.949.527 0 .949-.422.949-.95zm2.672.949c-.07-1.266-.352-2.391-1.266-3.305C13.625.797 12.5.516 11.234.445c-1.3-.07-5.203-.07-6.504 0-1.265.07-2.355.352-3.304 1.266C.512 2.625.23 3.75.16 5.016c-.07 1.3-.07 5.203 0 6.504.07 1.265.352 2.355 1.266 3.304.949.914 2.039 1.196 3.304 1.266 1.301.07 5.204.07 6.504 0 1.266-.07 2.391-.352 3.305-1.266.914-.949 1.195-2.039 1.266-3.304.07-1.301.07-5.204 0-6.504zm-1.688 7.875c-.246.703-.808 1.23-1.476 1.511-1.055.422-3.516.317-4.641.317-1.16 0-3.621.105-4.64-.317a2.665 2.665 0 01-1.512-1.511c-.422-1.02-.317-3.48-.317-4.641 0-1.125-.105-3.586.317-4.64a2.712 2.712 0 011.511-1.477C4.38 1.71 6.84 1.816 8 1.816c1.125 0 3.586-.105 4.64.317.669.246 1.196.808 1.477 1.476.422 1.055.317 3.516.317 4.641 0 1.16.105 3.621-.317 4.64z"/></symbol><symbol id="li-in" viewBox="0 0 16 16"><path d="M3.64 16V5.488H.372V16h3.27zM1.989 4.082c1.055 0 1.899-.879 1.899-1.934 0-1.02-.844-1.863-1.899-1.863C.968.285.125 1.13.125 2.148c0 1.055.844 1.934 1.863 1.934zM15.84 16h.035v-5.766c0-2.812-.633-4.992-3.938-4.992-1.582 0-2.636.88-3.093 1.688h-.035V5.488h-3.13V16h3.27v-5.203c0-1.371.246-2.672 1.934-2.672 1.687 0 1.723 1.547 1.723 2.777V16h3.234z"/></symbol><symbol id="like" viewBox="0 0 18 16"><path d="M16.367 1.842a4.583 4.583 0 00-6.483 0L9 2.725l-.883-.883a4.584 4.584 0 10-6.483 6.483l.883.883L9 15.692l6.484-6.484.883-.883a4.584 4.584 0 000-6.483z"/></symbol><symbol id="living-room" viewBox="0 0 16 16"><path d="M14.125 4.719v6.562H6.562V4.72a1.877 1.877 0 00-1.875 1.875v7.5h.938v-.938h9.438v.938H16v-7.5a1.877 1.877 0 00-1.875-1.875zM.938 10.344H0v3.75h.938v-3.75zM3.75 10.344h-.938v3.75h.938v-3.75zM2.344 7.531v-.937h-.938v.937H0v1.875h3.75V7.531H2.344zM3.424 1.906H.326L0 5.133v.523h3.75v-.523l-.326-3.227z"/><path d="M12.25 8.469H8.437a.939.939 0 00-.937.937v.938h5.688v-.938a.939.939 0 00-.938-.937zM12.25 2.844H8.437a.939.939 0 00-.937.937v4.002c.276-.16.596-.252.938-.252h3.812c.341 0 .662.092.938.253V3.78a.939.939 0 00-.938-.937z"/></symbol><symbol id="Logo" viewBox="0 0 148 40"><path d="M47.281 27.416c-.72.939-1.718 1.65-2.994 2.133-1.276.483-2.725.724-4.347.724-1.668 0-3.145-.378-4.43-1.134-1.285-.757-2.279-1.837-2.98-3.24-.693-1.413-1.053-3.059-1.08-4.936v-1.559c0-3.008.72-5.354 2.16-7.04 1.44-1.696 3.45-2.544 6.029-2.544 2.214 0 3.974.547 5.277 1.64 1.303 1.095 2.087 2.671 2.352 4.731h-3.391c-.383-2.397-1.773-3.595-4.17-3.595-1.55 0-2.73.56-3.541 1.681-.802 1.112-1.217 2.748-1.244 4.909v1.53c0 2.152.451 3.824 1.353 5.018.912 1.185 2.174 1.778 3.788 1.778 1.768 0 3.026-.401 3.773-1.203v-3.897h-4.102v-2.625h7.547v7.629zm6.754-10.596c1.085-1.258 2.457-1.886 4.115-1.886 3.154 0 4.754 1.8 4.8 5.4V30h-3.323v-9.543c0-1.02-.223-1.74-.67-2.16-.438-.428-1.085-.643-1.941-.643-1.331 0-2.325.593-2.98 1.778V30h-3.323V9h3.322v7.82zm11.662 5.647c0-1.45.287-2.753.862-3.91.574-1.167 1.38-2.06 2.42-2.68 1.039-.629 2.233-.943 3.582-.943 1.996 0 3.613.642 4.853 1.927 1.249 1.285 1.923 2.99 2.023 5.114l.014.779c0 1.458-.282 2.762-.847 3.91-.556 1.148-1.359 2.037-2.407 2.666-1.039.629-2.242.943-3.61.943-2.086 0-3.759-.692-5.017-2.078-1.248-1.394-1.873-3.249-1.873-5.564v-.164zm3.322.287c0 1.522.315 2.716.944 3.582.629.857 1.504 1.285 2.625 1.285s1.991-.437 2.611-1.312c.63-.875.944-2.156.944-3.842 0-1.495-.324-2.68-.971-3.555-.638-.875-1.509-1.312-2.611-1.312-1.085 0-1.946.433-2.584 1.298-.639.857-.958 2.142-.958 3.856zm20.987-4.512a8.224 8.224 0 00-1.354-.11c-1.522 0-2.547.584-3.076 1.75V30h-3.322V15.207h3.172l.082 1.654c.802-1.285 1.914-1.927 3.336-1.927.474 0 .866.063 1.175.191l-.013 3.117zM99.398 30V10.094h6.823c2.251 0 3.965.45 5.14 1.353 1.176.903 1.764 2.247 1.764 4.034a4.3 4.3 0 01-.738 2.46c-.492.73-1.213 1.295-2.16 1.696 1.075.291 1.905.843 2.488 1.654.592.802.889 1.768.889 2.898 0 1.869-.602 3.305-1.805 4.307C110.605 29.5 108.891 30 106.658 30h-7.26zm3.459-8.982v6.22h3.842c1.085 0 1.933-.269 2.543-.806.611-.538.916-1.285.916-2.242 0-2.07-1.057-3.127-3.172-3.172h-4.129zm0-2.543h3.391c1.076 0 1.914-.242 2.516-.725.61-.492.916-1.185.916-2.078 0-.985-.283-1.695-.848-2.133-.556-.437-1.426-.656-2.611-.656h-3.364v5.592zM125.58 30c-.146-.283-.273-.743-.383-1.38-1.057 1.102-2.351 1.653-3.883 1.653-1.485 0-2.697-.423-3.636-1.271-.939-.848-1.408-1.896-1.408-3.145 0-1.576.583-2.784 1.75-3.623 1.175-.847 2.852-1.271 5.031-1.271h2.037v-.97c0-.766-.214-1.377-.643-1.833-.428-.465-1.08-.697-1.955-.697-.756 0-1.376.191-1.859.574-.483.374-.725.852-.725 1.436h-3.322c0-.811.269-1.568.807-2.27.537-.71 1.267-1.267 2.187-1.668.93-.4 1.964-.601 3.104-.601 1.731 0 3.112.437 4.142 1.312 1.03.866 1.559 2.087 1.586 3.664v6.672c0 1.33.187 2.393.561 3.186V30h-3.391zm-3.65-2.393c.656 0 1.271-.16 1.845-.478.584-.32 1.021-.748 1.313-1.285v-2.79h-1.791c-1.231 0-2.156.215-2.776.643-.619.429-.929 1.035-.929 1.819 0 .638.209 1.148.629 1.53.428.375.998.561 1.709.561zm17.705-9.365a8.232 8.232 0 00-1.354-.11c-1.522 0-2.547.584-3.076 1.75V30h-3.322V15.207h3.172l.082 1.654c.802-1.285 1.914-1.927 3.336-1.927.474 0 .866.063 1.175.191l-.013 3.117zM145.268 30h-3.323V15.207h3.323V30zm-3.528-18.635c0-.51.16-.934.479-1.271.328-.337.793-.506 1.394-.506.602 0 1.067.169 1.395.506.328.337.492.76.492 1.271 0 .502-.164.92-.492 1.258-.328.328-.793.492-1.395.492-.601 0-1.066-.164-1.394-.492-.319-.337-.479-.756-.479-1.258z"/><g clip-path="url(#clip0_191_43)"><path d="M18.641 29.576v-18.35l-3.38 1.217V4.517L6.74 0v13.703l1.758-.63V3.018l4.982 2.693v7.362l-1.6.586V6.71l-1.76-.977v8.534L3.382 16.7v7.405L0 22.888v17.09h11.88v-9.207l-1.76-.63v8.035H1.759V25.342l4.982 1.78v7.427h-1.6V28.36l-1.759-.63v8.643h5.14v-8.599l11.72 4.213v6.21h-4.98v-4.364l1.6.586v1.976h1.758v-3.17l-5.14-1.846v8.643H22v-9.208l-3.359-1.238zm-1.78-.63l-4.982-1.78v-8.078l1.6-.586v7.47l1.759.63V16.07l-5.14 1.845v8.621l-4.981-1.78v-6.884l1.6-.586v6.254l1.758.63v-7.493l8.386-2.996v15.266z"/></g></symbol><symbol id="next" viewBox="0 0 11 11"><path d="M6.335 5.214c0-.08-.04-.17-.1-.23L1.554.301a.346.346 0 00-.231-.1c-.08 0-.171.04-.231.1L.589.805c-.06.06-.1.15-.1.23 0 .081.04.171.1.232l3.948 3.947L.589 9.162c-.06.06-.1.15-.1.23 0 .081.04.172.1.232l.503.502c.06.06.15.1.23.1.081 0 .171-.04.232-.1l4.68-4.68c.06-.061.101-.151.101-.232zm3.857 0c0-.08-.04-.17-.1-.23L5.41.301a.346.346 0 00-.231-.1c-.08 0-.17.04-.231.1l-.502.503c-.06.06-.1.15-.1.23 0 .081.04.171.1.232l3.947 3.947-3.947 3.948c-.06.06-.1.15-.1.23 0 .081.04.172.1.232l.502.502c.06.06.15.1.23.1.081 0 .172-.04.232-.1l4.68-4.68c.06-.061.101-.151.101-.232z"/></symbol><symbol id="phone" viewBox="0 0 22 22"><path d="M20.235 14.44c-1.347 0-2.67-.21-3.923-.624-.614-.21-1.369-.018-1.744.367l-2.473 1.868c-2.87-1.532-4.636-3.298-6.147-6.145l1.813-2.41c.47-.47.64-1.157.437-1.801a12.51 12.51 0 01-.627-3.93C7.57.792 6.779 0 5.806 0h-4.04C.791 0 0 .792 0 1.765 0 12.923 9.077 22 20.235 22c.973 0 1.765-.792 1.765-1.765v-4.03c0-.973-.792-1.764-1.765-1.764z"/></symbol><symbol id="pin" viewBox="0 0 17 22"><path d="M8.5 0C3.805 0 0 3.747 0 8.369 0 11.112 2.995 16.32 5.429 20.1c1.63 2.532 4.512 2.532 6.142 0C14.005 16.321 17 11.112 17 8.37 17 3.747 13.195 0 8.5 0zm0 12.304c-2.334 0-4.227-1.863-4.227-4.161 0-2.299 1.893-4.162 4.227-4.162 2.334 0 4.227 1.863 4.227 4.162 0 2.298-1.893 4.161-4.227 4.161z"/></symbol><symbol id="pint" viewBox="0 0 14 19"><path d="M7.422.496C3.8.496.25 2.886.25 6.79c0 2.461 1.371 3.867 2.215 3.867.351 0 .562-.949.562-1.23 0-.317-.843-1.02-.843-2.39 0-2.813 2.144-4.817 4.921-4.817 2.426 0 4.184 1.37 4.184 3.867 0 1.863-.738 5.344-3.164 5.344-.879 0-1.652-.633-1.652-1.512 0-1.336.949-2.637.949-4.008 0-2.32-3.305-1.898-3.305.914 0 .598.07 1.23.352 1.793-.492 2.074-1.477 5.203-1.477 7.348 0 .668.07 1.3.14 1.969.106.14.071.14.247.07 1.758-2.426 1.723-2.918 2.496-6.082.457.808 1.547 1.265 2.46 1.265 3.727 0 5.415-3.656 5.415-6.925 0-3.48-3.023-5.766-6.328-5.766z"/></symbol><symbol id="play" viewBox="0 0 68 68"><path d="M34 .545C15.551.545.544 15.553.544 34c0 18.446 15.007 33.454 33.454 33.454 18.448 0 33.455-15.008 33.455-33.454C67.454 15.553 52.447.545 34 .545zm13.3 34.627L27.783 47.717a1.387 1.387 0 01-1.421.052 1.392 1.392 0 01-.727-1.224v-25.09a1.392 1.392 0 012.148-1.173l19.515 12.546c.398.255.64.698.64 1.172 0 .473-.242.916-.64 1.172z"/></symbol><symbol id="prev" viewBox="0 0 11 11"><path d="M4.665 5.786c0 .08.04.17.1.23l4.681 4.681c.06.06.151.101.231.101.08 0 .171-.04.231-.1l.503-.503c.06-.06.1-.15.1-.23 0-.081-.04-.171-.1-.232L6.463 5.786l3.948-3.948c.06-.06.1-.15.1-.23 0-.081-.04-.172-.1-.232L9.908.874a.346.346 0 00-.23-.1c-.081 0-.171.04-.232.1l-4.68 4.68c-.06.061-.101.151-.101.232zm-3.857 0c0 .08.04.17.1.23l4.681 4.681c.06.06.15.101.231.101.08 0 .17-.04.231-.1l.502-.503c.06-.06.1-.15.1-.23 0-.081-.04-.171-.1-.232L2.606 5.786l3.947-3.948c.06-.06.1-.15.1-.23 0-.081-.04-.172-.1-.232L6.051.874a.346.346 0 00-.23-.1c-.081 0-.172.04-.232.1L.91 5.554c-.06.061-.101.151-.101.232z"/></symbol><symbol id="size" viewBox="0 0 16 16"><path d="M14.941 0H4.011c-.56 0-1.015.455-1.015 1.016v.957h1.066v-.907h10.829v10.828h-.82v1.066h.87c.56 0 1.016-.454 1.016-1.015V1.016C15.957.455 15.502 0 14.94 0z"/><path d="M11.99 3.04H1.06C.5 3.04.046 3.493.046 4.054v10.929C.045 15.545.5 16 1.06 16H11.99c.56 0 1.016-.455 1.016-1.016V4.055c0-.561-.455-1.016-1.016-1.016zm-.05 11.894H1.11V4.106H11.94v10.828z"/><path d="M1.937 14.281h2.467a.178.178 0 00.126-.303l-.856-.856 6.44-6.476.856.856a.178.178 0 00.304-.126V4.91a.178.178 0 00-.178-.178H8.63a.178.178 0 00-.126.303l.857.858-6.44 6.475-.858-.857a.177.177 0 00-.303.126v2.466c0 .098.08.178.177.178z"/></symbol><symbol id="skype" viewBox="0 0 26 27"><path d="M19.776 16.081c0 3.399-3.281 4.973-6.429 4.973-3.766 0-6.914-1.674-6.914-3.734 0-.92.52-1.758 1.691-1.758 1.791 0 1.959 2.579 5.056 2.579 1.473 0 2.427-.653 2.427-1.507 0-1.072-.92-1.239-2.41-1.607l-2.444-.603c-2.445-.586-4.32-1.59-4.32-4.403 0-3.398 3.365-4.654 6.261-4.654 3.164 0 6.362 1.256 6.362 3.181 0 .971-.653 1.825-1.741 1.825-1.624 0-1.674-1.925-4.302-1.925-1.474 0-2.411.401-2.411 1.289 0 .97.954 1.188 2.226 1.49l1.742.401c2.377.536 5.206 1.54 5.206 4.453zm6.077 3.633c0-1.473-.502-2.829-1.34-3.917.168-.804.268-1.658.268-2.511 0-6.513-5.273-11.786-11.785-11.786-.854 0-1.708.1-2.511.268A6.403 6.403 0 006.567.428 6.43 6.43 0 00.14 6.859c0 1.472.502 2.828 1.339 3.917a12.405 12.405 0 00-.268 2.51c0 6.513 5.274 11.786 11.786 11.786.854 0 1.707-.1 2.511-.267a6.403 6.403 0 003.917 1.339 6.43 6.43 0 006.429-6.429z"/></symbol><symbol id="tm" viewBox="0 0 24 24"><g clip-path="url(#clip0_253_1786)"><path d="M8.75 17.612v4.638a.751.751 0 001.354.444l2.713-3.692-4.067-1.39zM23.685.139a.75.75 0 00-.782-.054l-22.5 11.75a.752.752 0 00.104 1.375l6.255 2.138 13.321-11.39L9.775 16.377l10.483 3.583a.753.753 0 00.984-.599l2.75-18.5a.751.751 0 00-.307-.722z"/></g></symbol><symbol id="user" viewBox="0 0 18 18"><path d="M8.999 0a4.21 4.21 0 00-4.212 4.212A4.21 4.21 0 009 8.424a4.21 4.21 0 004.212-4.212A4.21 4.21 0 008.999 0zM10.641 8.911h-3.28a5.989 5.989 0 00-5.986 5.985v2.439c0 .377.288.665.665.665h13.921a.653.653 0 00.665-.665v-2.439a5.989 5.989 0 00-5.985-5.985z"/></symbol></svg>