<svg width="16" height="16" fill="none" xmlns="http://www.w3.org/2000/svg"><path d="M15 7.97H1a1.001 1.001 0 000 2h14a1.001 1.001 0 000-2z" fill="#10AC84"/><path d="M15.092 9.316a.331.331 0 00-.412.23l-.026.091H1.346l-.026-.091a.333.333 0 10-.641.182l.919 3.216a2.343 2.343 0 002.243 1.693h8.317a2.343 2.343 0 002.243-1.693l.919-3.216a.333.333 0 00-.228-.412zm-11.25 3.988c-.444 0-.84-.298-.962-.726l-.432-1.516a.333.333 0 11.64-.182l.433 1.516a.336.336 0 00.32.242.334.334 0 010 .666z" fill="#10AC84"/><path d="M4.481 14.005a.335.335 0 00-.447.15l-.667 1.333a.334.334 0 00.597.298l.666-1.334a.334.334 0 00-.149-.447zm8.151 1.483l-.666-1.333a.333.333 0 10-.597.298l.667 1.333a.333.333 0 00.596-.298zM13.39.03c-.34 0-.66.132-.9.373L11.43 1.46a.334.334 0 00.472.471L12.96.875a.607.607 0 011.04.429v7a.334.334 0 10.667-.001v-7A1.273 1.273 0 0013.39.03z" fill="#10AC84"/><path d="M12.235 1.794l-.667-.666a.33.33 0 00-.29-.094l-1.666.274a.334.334 0 00-.186.56l2 2.06a.332.332 0 00.334.088.332.332 0 00.232-.254l.334-1.667a.333.333 0 00-.091-.3zM7.902 4.068a.334.334 0 00-.472 0l-.666.667a.334.334 0 00.47.471l.668-.666a.334.334 0 000-.472zm1.334 1.334a.334.334 0 00-.472 0l-.666.666a.334.334 0 00.47.472l.668-.667a.334.334 0 000-.471zm.666-2a.334.334 0 00-.472 0l-.666.666a.334.334 0 00.47.472l.668-.667a.334.334 0 000-.471z" fill="#10AC84"/></svg>