<svg width="16" height="16" fill="none" xmlns="http://www.w3.org/2000/svg"><path d="M1.328 8.952h13.344a.996.996 0 100-1.992H1.328a.996.996 0 100 1.992zm7.668-4.14a.528.528 0 00-.527.527v.683h4.08V5.34a.528.528 0 00-.528-.527H8.996z" fill="#10AC84"/><path d="M2.514 5.34c0-.808.657-1.465 1.464-1.465h3.025c.385 0 .735.149.996.392a1.46 1.46 0 01.996-.392h3.025c.808 0 1.465.657 1.465 1.464v.683h1.521V2.794a.996.996 0 00-.995-.996H1.988a.996.996 0 00-.996.996v3.228h1.522V5.34z" fill="#10AC84"/><path d="M3.978 4.812a.528.528 0 00-.527.527v.683h4.08V5.34a.528.528 0 00-.528-.527H3.978zM0 9.89v4.312h.938v-1.71h14.124v1.71H16V9.89H0z" fill="#10AC84"/></svg>