<svg width="16" height="16" fill="none" xmlns="http://www.w3.org/2000/svg"><path d="M14.125 4.719v6.562H6.562V4.72a1.877 1.877 0 00-1.875 1.875v7.5h.938v-.938h9.438v.938H16v-7.5a1.877 1.877 0 00-1.875-1.875zM.938 10.344H0v3.75h.938v-3.75zm2.812 0h-.938v3.75h.938v-3.75zM2.344 7.531v-.937h-.938v.937H0v1.875h3.75V7.531H2.344zm1.08-5.625H.326L0 5.133v.523h3.75v-.523l-.326-3.227z" fill="#10AC84"/><path d="M12.25 8.469H8.437a.939.939 0 00-.937.937v.938h5.688v-.938a.939.939 0 00-.938-.937zm0-5.625H8.437a.939.939 0 00-.937.937v4.002c.276-.16.596-.252.938-.252h3.812c.341 0 .662.092.938.253V3.78a.939.939 0 00-.938-.937z" fill="#10AC84"/></svg>