<svg width="16" height="16" fill="none" xmlns="http://www.w3.org/2000/svg"><path d="M14.941 0H4.011c-.56 0-1.015.455-1.015 1.016v.957h1.066v-.907h10.829v10.828h-.82v1.066h.87c.56 0 1.016-.454 1.016-1.015V1.016C15.957.455 15.502 0 14.94 0z" fill="#10AC84"/><path d="M11.99 3.04H1.06C.5 3.04.046 3.493.046 4.054v10.929A1.015 1.015 0 001.06 16h10.93c.56 0 1.016-.455 1.016-1.016V4.055c0-.561-.455-1.016-1.016-1.016zm-.05 11.894H1.11V4.106h10.83v10.828z" fill="#10AC84"/><path d="M1.937 14.281h2.467a.178.178 0 00.126-.303l-.856-.856 6.44-6.476.856.856a.178.178 0 00.304-.126V4.91a.178.178 0 00-.178-.178H8.63a.178.178 0 00-.126.303l.857.858-6.44 6.475-.858-.857a.177.177 0 00-.303.126v2.466c0 .098.08.178.177.178z" fill="#10AC84"/></svg>