<svg width="16" height="16" viewBox="0 0 16 16" fill="none" xmlns="http://www.w3.org/2000/svg">
<path d="M15 7.97046H1C0.448656 7.97046 0 8.41912 0 8.97046C0 9.5218 0.448656 9.97046 1 9.97046H15C15.5513 9.97046 16 9.5218 16 8.97046C16 8.41912 15.5513 7.97046 15 7.97046Z" fill="#10AC84"/>
<path d="M15.0917 9.3164C14.911 9.26574 14.7297 9.3684 14.6797 9.54574L14.6537 9.63709H1.34633L1.31967 9.54574C1.26967 9.3684 1.08701 9.26709 0.90767 9.3164C0.730326 9.36706 0.628326 9.55174 0.679014 9.7284L1.59767 12.9444C1.88233 13.9411 2.80501 14.6371 3.84101 14.6371H12.1577C13.1943 14.6371 14.1163 13.9411 14.401 12.9444L15.3197 9.7284C15.371 9.55171 15.2683 9.36706 15.0917 9.3164ZM3.84167 13.3037C3.39767 13.3037 3.00167 13.0057 2.88033 12.5784L2.44767 11.0624C2.39701 10.885 2.49967 10.701 2.67633 10.6504C2.85498 10.5997 3.03833 10.703 3.08833 10.8797L3.52098 12.3957C3.56233 12.5377 3.69364 12.6377 3.84164 12.6377C4.02564 12.6377 4.17498 12.7871 4.17498 12.9711C4.17501 13.1551 4.02567 13.3037 3.84167 13.3037Z" fill="#10AC84"/>
<path d="M4.4811 14.0051C4.31644 13.9244 4.1171 13.9891 4.03376 14.1544L3.3671 15.4877C3.2851 15.6524 3.35176 15.8524 3.51644 15.9351C3.5651 15.9591 3.61579 15.9704 3.66579 15.9704C3.78779 15.9704 3.90513 15.9031 3.96379 15.7858L4.63044 14.4524C4.71244 14.2877 4.64576 14.0877 4.4811 14.0051Z" fill="#10AC84"/>
<path d="M12.6324 15.4883L11.9657 14.155C11.8831 13.9896 11.6831 13.9236 11.5184 14.0056C11.3537 14.0883 11.287 14.2883 11.369 14.453L12.0357 15.7863C12.0944 15.903 12.2117 15.9703 12.3337 15.9703C12.3837 15.9703 12.4344 15.959 12.483 15.9357C12.6477 15.853 12.7144 15.653 12.6324 15.4883Z" fill="#10AC84"/>
<path d="M13.3901 0.029541C13.0501 0.029541 12.7301 0.162197 12.4895 0.402885L11.4315 1.46088C11.3015 1.59088 11.3015 1.80223 11.4315 1.93223C11.5615 2.06223 11.7728 2.06223 11.9028 1.93223L12.9608 0.874885C13.0748 0.760228 13.2275 0.696885 13.3935 0.696885C13.7281 0.696885 14.0001 0.968885 14.0001 1.30354V8.30354C14.0001 8.48754 14.1495 8.63688 14.3335 8.63688C14.5175 8.63688 14.6668 8.48754 14.6675 8.30288V1.30288C14.6675 0.600885 14.0968 0.029541 13.3901 0.029541Z" fill="#10AC84"/>
<path d="M12.235 1.7944L11.5684 1.12775C11.4924 1.05175 11.3864 1.0164 11.2784 1.0344L9.61173 1.30775C9.48907 1.32775 9.38839 1.4144 9.34907 1.53175C9.30973 1.64909 9.33973 1.77975 9.42642 1.8684L11.4264 3.9284C11.4898 3.9944 11.5771 4.02975 11.6651 4.02975C11.6964 4.02975 11.7284 4.02509 11.7597 4.01575C11.8784 3.98109 11.9684 3.88309 11.9924 3.76175L12.3257 2.09509C12.3477 1.9864 12.3137 1.87372 12.235 1.7944Z" fill="#10AC84"/>
<path d="M7.90151 4.06845C7.77151 3.93845 7.56017 3.93845 7.43017 4.06845L6.76352 4.7351C6.63352 4.8651 6.63352 5.07645 6.76352 5.20645C6.82886 5.2711 6.91417 5.30379 6.99952 5.30379C7.08486 5.30379 7.17017 5.27114 7.23486 5.20645L7.90151 4.53979C8.03151 4.40976 8.03151 4.19845 7.90151 4.06845Z" fill="#10AC84"/>
<path d="M9.2355 5.4017C9.1055 5.2717 8.89416 5.2717 8.76416 5.4017L8.0975 6.06836C7.9675 6.19836 7.9675 6.4097 8.0975 6.5397C8.16284 6.60436 8.24816 6.63704 8.3335 6.63704C8.41884 6.63704 8.50416 6.60439 8.56884 6.5397L9.2355 5.87304C9.3655 5.74304 9.3655 5.5317 9.2355 5.4017Z" fill="#10AC84"/>
<path d="M9.90152 3.4017C9.77152 3.2717 9.56017 3.2717 9.43017 3.4017L8.76352 4.06836C8.63352 4.19836 8.63352 4.4097 8.76352 4.5397C8.82886 4.60436 8.91417 4.63704 8.99952 4.63704C9.08486 4.63704 9.17017 4.60439 9.23486 4.5397L9.90152 3.87304C10.0315 3.74304 10.0315 3.5317 9.90152 3.4017Z" fill="#10AC84"/>
</svg>
