<svg width="50" height="50" viewBox="0 0 50 50" fill="none" xmlns="http://www.w3.org/2000/svg">
<circle cx="25" cy="25" r="24" fill="white" stroke="#7B7B7B" stroke-width="2"/>
<g clip-path="url(#clip0_259_352)">
<path d="M26.8323 25.0197L34.6199 17.2319C35.1267 16.7253 35.1267 15.9063 34.6199 15.3997C34.1134 14.8931 33.2943 14.8931 32.7878 15.3997L24.9999 23.1875L17.2123 15.3997C16.7055 14.8931 15.8867 14.8931 15.3801 15.3997C14.8733 15.9063 14.8733 16.7253 15.3801 17.2319L23.1677 25.0197L15.3801 32.8076C14.8733 33.3141 14.8733 34.1332 15.3801 34.6397C15.6326 34.8924 15.9645 35.0194 16.2962 35.0194C16.6279 35.0194 16.9596 34.8924 17.2123 34.6397L24.9999 26.8519L32.7878 34.6397C33.0404 34.8924 33.3721 35.0194 33.7038 35.0194C34.0355 35.0194 34.3672 34.8924 34.6199 34.6397C35.1267 34.1332 35.1267 33.3141 34.6199 32.8076L26.8323 25.0197Z" fill="#7B7B7B"/>
</g>
<defs>
<clipPath id="clip0_259_352">
<rect width="20" height="20" fill="white" transform="translate(15 15)"/>
</clipPath>
</defs>
</svg>
