<svg width="148" height="40" viewBox="0 0 148 40" fill="none" xmlns="http://www.w3.org/2000/svg">
<path d="M47.2812 27.416C46.5612 28.3548 45.5632 29.0658 44.2871 29.5488C43.0111 30.0319 41.5618 30.2734 39.9395 30.2734C38.2715 30.2734 36.7949 29.8952 35.5098 29.1387C34.2246 28.3822 33.2311 27.3021 32.5293 25.8984C31.8366 24.4857 31.4766 22.8405 31.4492 20.9629V19.4043C31.4492 16.3965 32.1693 14.0495 33.6094 12.3633C35.0495 10.668 37.0592 9.82031 39.6387 9.82031C41.8535 9.82031 43.6126 10.3672 44.916 11.4609C46.2194 12.5547 47.0033 14.1315 47.2676 16.1914H43.877C43.4941 13.7943 42.1042 12.5957 39.707 12.5957C38.1576 12.5957 36.9772 13.1562 36.166 14.2773C35.3639 15.3893 34.9492 17.0254 34.9219 19.1855V20.7168C34.9219 22.8678 35.373 24.5404 36.2754 25.7344C37.1868 26.9193 38.4492 27.5117 40.0625 27.5117C41.8307 27.5117 43.0885 27.1107 43.8359 26.3086V22.4121H39.7344V19.7871H47.2812V27.416ZM54.0352 16.8203C55.1198 15.5625 56.4915 14.9336 58.1504 14.9336C61.304 14.9336 62.9036 16.7337 62.9492 20.334V30H59.627V20.457C59.627 19.4362 59.4036 18.7161 58.957 18.2969C58.5195 17.8685 57.8724 17.6543 57.0156 17.6543C55.6849 17.6543 54.6914 18.2467 54.0352 19.4316V30H50.7129V9H54.0352V16.8203ZM65.6973 22.4668C65.6973 21.0176 65.9844 19.7142 66.5586 18.5566C67.1328 17.39 67.9395 16.4967 68.9785 15.877C70.0176 15.248 71.2116 14.9336 72.5605 14.9336C74.5566 14.9336 76.1745 15.5762 77.4141 16.8613C78.6628 18.1465 79.3372 19.8509 79.4375 21.9746L79.4512 22.7539C79.4512 24.2122 79.1686 25.5156 78.6035 26.6641C78.0475 27.8125 77.2454 28.7012 76.1973 29.3301C75.1582 29.959 73.9551 30.2734 72.5879 30.2734C70.5007 30.2734 68.8281 29.5807 67.5703 28.1953C66.3216 26.8008 65.6973 24.946 65.6973 22.6309V22.4668ZM69.0195 22.7539C69.0195 24.276 69.334 25.4701 69.9629 26.3359C70.5918 27.1927 71.4668 27.6211 72.5879 27.6211C73.709 27.6211 74.5794 27.1836 75.1992 26.3086C75.8281 25.4336 76.1426 24.153 76.1426 22.4668C76.1426 20.972 75.819 19.7871 75.1719 18.9121C74.5339 18.0371 73.6634 17.5996 72.5605 17.5996C71.4759 17.5996 70.6146 18.0326 69.9766 18.8984C69.3385 19.7552 69.0195 21.0404 69.0195 22.7539ZM90.0059 18.2422C89.5684 18.1693 89.1172 18.1328 88.6523 18.1328C87.1302 18.1328 86.1048 18.7161 85.5762 19.8828V30H82.2539V15.207H85.4258L85.5078 16.8613C86.3099 15.5762 87.4219 14.9336 88.8438 14.9336C89.3177 14.9336 89.7096 14.9974 90.0195 15.125L90.0059 18.2422ZM99.3984 30V10.0938H106.221C108.472 10.0938 110.186 10.5449 111.361 11.4473C112.537 12.3496 113.125 13.694 113.125 15.4805C113.125 16.3919 112.879 17.2122 112.387 17.9414C111.895 18.6706 111.174 19.2357 110.227 19.6367C111.302 19.9284 112.132 20.4798 112.715 21.291C113.307 22.0931 113.604 23.0592 113.604 24.1895C113.604 26.0579 113.002 27.4935 111.799 28.4961C110.605 29.4987 108.891 30 106.658 30H99.3984ZM102.857 21.0176V27.2383H106.699C107.784 27.2383 108.632 26.9694 109.242 26.4316C109.853 25.8939 110.158 25.1465 110.158 24.1895C110.158 22.1204 109.101 21.0632 106.986 21.0176H102.857ZM102.857 18.4746H106.248C107.324 18.4746 108.162 18.2331 108.764 17.75C109.374 17.2578 109.68 16.5651 109.68 15.6719C109.68 14.6875 109.397 13.9766 108.832 13.5391C108.276 13.1016 107.406 12.8828 106.221 12.8828H102.857V18.4746ZM125.58 30C125.434 29.7174 125.307 29.2572 125.197 28.6191C124.14 29.722 122.846 30.2734 121.314 30.2734C119.829 30.2734 118.617 29.8496 117.678 29.002C116.739 28.1543 116.27 27.1061 116.27 25.8574C116.27 24.2806 116.853 23.0729 118.02 22.2344C119.195 21.3867 120.872 20.9629 123.051 20.9629H125.088V19.9922C125.088 19.2266 124.874 18.6159 124.445 18.1602C124.017 17.6953 123.365 17.4629 122.49 17.4629C121.734 17.4629 121.114 17.6543 120.631 18.0371C120.148 18.4108 119.906 18.8893 119.906 19.4727H116.584C116.584 18.6615 116.853 17.9049 117.391 17.2031C117.928 16.4922 118.658 15.9362 119.578 15.5352C120.508 15.1341 121.542 14.9336 122.682 14.9336C124.413 14.9336 125.794 15.3711 126.824 16.2461C127.854 17.112 128.383 18.3333 128.41 19.9102V26.582C128.41 27.9128 128.597 28.9746 128.971 29.7676V30H125.58ZM121.93 27.6074C122.586 27.6074 123.201 27.4479 123.775 27.1289C124.359 26.8099 124.796 26.3815 125.088 25.8438V23.0547H123.297C122.066 23.0547 121.141 23.2689 120.521 23.6973C119.902 24.1257 119.592 24.7318 119.592 25.5156C119.592 26.1536 119.801 26.6641 120.221 27.0469C120.649 27.4206 121.219 27.6074 121.93 27.6074ZM139.635 18.2422C139.197 18.1693 138.746 18.1328 138.281 18.1328C136.759 18.1328 135.734 18.7161 135.205 19.8828V30H131.883V15.207H135.055L135.137 16.8613C135.939 15.5762 137.051 14.9336 138.473 14.9336C138.947 14.9336 139.339 14.9974 139.648 15.125L139.635 18.2422ZM145.268 30H141.945V15.207H145.268V30ZM141.74 11.3652C141.74 10.8548 141.9 10.431 142.219 10.0938C142.547 9.75651 143.012 9.58789 143.613 9.58789C144.215 9.58789 144.68 9.75651 145.008 10.0938C145.336 10.431 145.5 10.8548 145.5 11.3652C145.5 11.8665 145.336 12.2858 145.008 12.623C144.68 12.9512 144.215 13.1152 143.613 13.1152C143.012 13.1152 142.547 12.9512 142.219 12.623C141.9 12.2858 141.74 11.8665 141.74 11.3652Z" fill="white"/>
<g clip-path="url(#clip0_191_43)">
<path d="M18.6414 29.5765V11.2269L15.2602 12.443V4.51683L6.73975 0V13.7025L8.49795 13.0727V3.01846L13.4795 5.71118V13.0727L11.8791 13.6591V6.7101L10.1209 5.7329V14.2671L3.38115 16.6992V24.1042L0 22.8882V39.9783H11.8791V30.7709L10.1209 30.1412V38.1759H1.7582V25.342L6.73975 27.1227V34.5494H5.13934V28.3605L3.38115 27.7307V36.3735H8.52049V27.7742L20.2418 31.987V38.1976H15.2602V33.8328L16.8607 34.4191V36.3952H18.6189V33.2248L13.4795 31.3789V33.203V40.0217H22V30.8143L18.6414 29.5765ZM16.8607 28.9468L11.8791 27.1661V19.0879L13.4795 18.5016V25.9718L15.2377 26.6015V16.0695L10.0984 17.9153V26.5364L5.1168 24.7557V17.8719L6.71721 17.2856V23.5396L8.47541 24.1694V16.6775L16.8607 13.6808V28.9468Z" fill="white"/>
</g>
<defs>
<clipPath id="clip0_191_43">
<rect width="22" height="40" fill="white"/>
</clipPath>
</defs>
</svg>
