<svg width="11" height="11" viewBox="0 0 11 11" fill="none" xmlns="http://www.w3.org/2000/svg">
<path d="M6.33496 5.21429C6.33496 5.13393 6.29478 5.04353 6.23451 4.98326L1.55371 0.302455C1.49344 0.242188 1.40304 0.202008 1.32268 0.202008C1.24233 0.202008 1.15193 0.242188 1.09166 0.302455L0.589425 0.804688C0.529157 0.864955 0.488979 0.955357 0.488979 1.03571C0.488979 1.11607 0.529157 1.20647 0.589425 1.26674L4.53697 5.21429L0.589425 9.16183C0.529157 9.2221 0.488979 9.3125 0.488979 9.39286C0.488979 9.47321 0.529157 9.56362 0.589425 9.62388L1.09166 10.1261C1.15193 10.1864 1.24233 10.2266 1.32268 10.2266C1.40304 10.2266 1.49344 10.1864 1.55371 10.1261L6.23451 5.44531C6.29478 5.38504 6.33496 5.29464 6.33496 5.21429ZM10.1921 5.21429C10.1921 5.13393 10.1519 5.04353 10.0917 4.98326L5.41085 0.302455C5.35059 0.242188 5.26018 0.202008 5.17983 0.202008C5.09947 0.202008 5.00907 0.242188 4.9488 0.302455L4.44657 0.804688C4.3863 0.864955 4.34612 0.955357 4.34612 1.03571C4.34612 1.11607 4.3863 1.20647 4.44657 1.26674L8.39411 5.21429L4.44657 9.16183C4.3863 9.2221 4.34612 9.3125 4.34612 9.39286C4.34612 9.47321 4.3863 9.56362 4.44657 9.62388L4.9488 10.1261C5.00907 10.1864 5.09947 10.2266 5.17983 10.2266C5.26018 10.2266 5.35059 10.1864 5.41085 10.1261L10.0917 5.44531C10.1519 5.38504 10.1921 5.29464 10.1921 5.21429Z" fill="#333333"/>
</svg>
