<svg width="68" height="68" viewBox="0 0 68 68" fill="none" xmlns="http://www.w3.org/2000/svg">
<path d="M33.9995 0.545166C15.5515 0.545166 0.544922 15.5532 0.544922 33.9997C0.544922 52.4462 15.5515 67.4543 33.9995 67.4543C52.4474 67.4543 67.454 52.4462 67.454 33.9997C67.454 15.5532 52.4474 0.545166 33.9995 0.545166ZM47.2991 35.1718L27.784 47.7172C27.5553 47.8656 27.2912 47.9391 27.0298 47.9391C26.8011 47.9391 26.5697 47.8819 26.3628 47.769C25.9135 47.524 25.6358 47.0556 25.6358 46.5452V21.4543C25.6358 20.9438 25.9135 20.4754 26.3628 20.2304C26.8039 19.9881 27.3565 20.003 27.784 20.2822L47.2991 32.8276C47.6966 33.0835 47.9389 33.526 47.9389 33.9997C47.9389 34.4734 47.6966 34.9158 47.2991 35.1718Z" fill="#0984E3"/>
</svg>
