<svg width="11" height="11" viewBox="0 0 11 11" fill="none" xmlns="http://www.w3.org/2000/svg">
<path d="M4.66504 5.78572C4.66504 5.86607 4.70522 5.95647 4.76548 6.01674L9.44629 10.6975C9.50656 10.7578 9.59696 10.798 9.67731 10.798C9.75767 10.798 9.84807 10.7578 9.90834 10.6975L10.4106 10.1953C10.4708 10.135 10.511 10.0446 10.511 9.96429C10.511 9.88393 10.4708 9.79353 10.4106 9.73326L6.46303 5.78572L10.4106 1.83817C10.4708 1.7779 10.511 1.6875 10.511 1.60714C10.511 1.52679 10.4708 1.43638 10.4106 1.37612L9.90834 0.873884C9.84807 0.813616 9.75767 0.773438 9.67731 0.773438C9.59696 0.773438 9.50656 0.813616 9.44629 0.873884L4.76548 5.55469C4.70522 5.61496 4.66504 5.70536 4.66504 5.78572ZM0.807895 5.78572C0.807895 5.86607 0.848073 5.95647 0.908341 6.01674L5.58914 10.6975C5.64941 10.7578 5.73981 10.798 5.82017 10.798C5.90053 10.798 5.99093 10.7578 6.0512 10.6975L6.55343 10.1953C6.6137 10.135 6.65388 10.0446 6.65388 9.96429C6.65388 9.88393 6.6137 9.79353 6.55343 9.73326L2.60589 5.78572L6.55343 1.83817C6.6137 1.7779 6.65388 1.6875 6.65388 1.60714C6.65388 1.52679 6.6137 1.43638 6.55343 1.37612L6.0512 0.873884C5.99093 0.813617 5.90053 0.773438 5.82017 0.773438C5.73981 0.773438 5.64941 0.813617 5.58914 0.873884L0.908341 5.55469C0.848073 5.61496 0.807895 5.70536 0.807895 5.78572Z" fill="#333333"/>
</svg>
