<svg width="16" height="16" viewBox="0 0 16 16" fill="none" xmlns="http://www.w3.org/2000/svg">
<path d="M14.9411 0H4.01179C3.45109 0 2.99609 0.454787 2.99609 1.01597V1.97334H4.06226V1.06617H14.8906V11.8943H14.0718V12.9605H14.9411C15.5018 12.9605 15.9568 12.5057 15.9568 11.9446V1.01597C15.9568 0.454787 15.5018 0 14.9411 0Z" fill="#10AC84"/>
<path d="M11.9899 3.03931H1.06054C0.499918 3.03931 0.0449219 3.49402 0.0449219 4.05528V14.9838C0.0449219 15.5451 0.499918 15.9998 1.06054 15.9998H11.9899C12.5506 15.9998 13.0056 15.5451 13.0056 14.9838V4.05528C13.0056 3.49402 12.5506 3.03931 11.9899 3.03931ZM11.9395 14.9336H1.11109V4.10551H11.9394V14.9336H11.9395Z" fill="#10AC84"/>
<path d="M1.93729 14.281L4.40382 14.2818C4.47572 14.2818 4.54078 14.2383 4.56834 14.1719C4.59596 14.1056 4.58037 14.029 4.52986 13.9779L3.67397 13.1219L10.1148 6.64642L10.9701 7.50203C11.0211 7.55278 11.0977 7.56813 11.1638 7.5405C11.2304 7.51295 11.2737 7.4481 11.2737 7.37627L11.2742 4.91026C11.2742 4.81213 11.1945 4.73249 11.0962 4.73249L8.63013 4.73169C8.55823 4.73169 8.49317 4.77512 8.46561 4.84154C8.43798 4.90789 8.45312 4.98443 8.50412 5.03543L9.36099 5.8926L2.92016 12.368L2.06326 11.5114C2.01222 11.4606 1.93621 11.4452 1.86955 11.4729C1.80292 11.5005 1.75977 11.5653 1.75977 11.6371V14.1031C1.7598 14.2013 1.83944 14.281 1.93729 14.281Z" fill="#10AC84"/>
</svg>
