<svg width="26" height="27" viewBox="0 0 26 27" fill="none" xmlns="http://www.w3.org/2000/svg">
<path d="M19.776 16.0815C19.776 19.4799 16.4947 21.0536 13.3474 21.0536C9.58064 21.0536 6.43331 19.3795 6.43331 17.3203C6.43331 16.3996 6.95229 15.5625 8.12416 15.5625C9.91546 15.5625 10.0829 18.1406 13.18 18.1406C14.6532 18.1406 15.6074 17.4877 15.6074 16.6339C15.6074 15.5625 14.6867 15.3951 13.1967 15.0268L10.7525 14.4241C8.30831 13.8382 6.43331 12.8337 6.43331 10.0212C6.43331 6.62277 9.79827 5.36719 12.6945 5.36719C15.8585 5.36719 19.0561 6.62277 19.0561 8.54799C19.0561 9.51897 18.4032 10.3728 17.315 10.3728C15.6911 10.3728 15.6409 8.44754 13.0126 8.44754C11.5393 8.44754 10.6018 8.84933 10.6018 9.73661C10.6018 10.7076 11.5561 10.9252 12.8284 11.2266L14.5695 11.6283C16.9467 12.1641 19.776 13.1685 19.776 16.0815ZM25.853 19.7143C25.853 18.2411 25.3507 16.885 24.5137 15.7969C24.6811 14.9933 24.7815 14.1395 24.7815 13.2857C24.7815 6.77344 19.5081 1.5 12.9958 1.5C12.142 1.5 11.2882 1.60045 10.4847 1.76786C9.39648 0.930803 8.04046 0.42857 6.56724 0.42857C3.01814 0.42857 0.138672 3.30803 0.138672 6.85714C0.138672 8.33036 0.640904 9.68638 1.47796 10.7746C1.31055 11.5781 1.2101 12.4319 1.2101 13.2857C1.2101 19.798 6.48354 25.0714 12.9958 25.0714C13.8496 25.0714 14.7034 24.971 15.507 24.8036C16.5951 25.6406 17.9512 26.1429 19.4244 26.1429C22.9735 26.1429 25.853 23.2634 25.853 19.7143Z" fill="#0984E3"/>
</svg>
